Coordinates
version=1
nRows=10
nColumns=63
inDegrees=yes

Units are S.I. units (second, meters, Newtons, ...)
If the header above contains a line with 'inDegrees', this indicates whether rotational values are in degrees (yes) or radians (no).

endheader
time	pelvis_tilt	pelvis_list	pelvis_rotation	pelvis_tx	pelvis_ty	pelvis_tz	hip_flexion_r	hip_adduction_r	hip_rotation_r	knee_angle_r	knee_angle_r_beta	ankle_angle_r	subtalar_angle_r	mtp_angle_r	hip_flexion_l	hip_adduction_l	hip_rotation_l	knee_angle_l	knee_angle_l_beta	ankle_angle_l	subtalar_angle_l	mtp_angle_l	L5_S1_Flex_Ext	L5_S1_Lat_Bending	L5_S1_axial_rotation	L4_L5_Flex_Ext	L4_L5_Lat_Bending	L4_L5_axial_rotation	L3_L4_Flex_Ext	L3_L4_Lat_Bending	L3_L4_axial_rotation	L2_L3_Flex_Ext	L2_L3_Lat_Bending	L2_L3_axial_rotation	L1_L2_Flex_Ext	L1_L2_Lat_Bending	L1_L2_axial_rotation	L1_T12_Flex_Ext	L1_T12_Lat_Bending	L1_T12_axial_rotation	Abs_r3	Abs_r2	Abs_r1	Abs_t1	Abs_t2	neck_flexion	neck_bending	neck_rotation	arm_flex_r	arm_add_r	arm_rot_r	elbow_flex_r	pro_sup_r	wrist_flex_r	wrist_dev_r	arm_flex_l	arm_add_l	arm_rot_l	elbow_flex_l	pro_sup_l	wrist_flex_l	wrist_dev_l
      1.21666667	     -3.38577006	     -3.58904576	     89.61108070	      0.16702377	      0.53750263	      1.08453106	      0.58831634	     -4.75431176	    -15.86342526	      9.00471652	      0.15716195	     30.47217390	     17.42356267	      0.00000000	      3.01081407	      4.53781597	     -0.23536756	      9.47484018	      0.16536716	     28.09883698	     -1.29990651	      0.00000000	      0.01531152	     -0.23492887	     -0.39971593	      0.02843502	     -0.31245540	     -0.42469818	      0.02515529	     -0.57120606	     -0.42469818	      0.01749953	     -0.57120606	     -0.34975144	      0.01421828	     -0.47906696	     -0.32476919	      0.00874900	     -0.36390483	     -0.29978695	      0.10936864	     -2.65756241	     -2.22310009	      0.00000000	      0.00000000	      8.07044957	      0.93424541	      5.17579401	     63.39336228	    -21.60930077	      9.99816940	    127.68721002	     84.77886126	     50.37031406	      8.03559864	     54.09316382	    -40.47383354	      1.14451240	    144.48491696	     86.98726867	     31.03878242	     19.94344454
      1.23333333	     -3.63039204	     -3.46360869	     89.83027753	      0.16726375	      0.53821883	      1.08503718	      0.37845703	     -4.94576761	    -15.99099925	      8.89090610	      0.15517558	     30.48428128	     17.31239011	      0.00000000	      3.07639249	      4.72223746	     -0.77148822	      9.77014365	      0.17052118	     28.27451731	     -0.22995791	      0.00000000	     -0.01676556	     -0.27243736	     -0.27655342	     -0.03113532	     -0.36234169	     -0.29383800	     -0.02754414	     -0.66240419	     -0.29383800	     -0.01916136	     -0.66240419	     -0.24198424	     -0.01556850	     -0.55555426	     -0.22469965	     -0.00957984	     -0.42200547	     -0.20741506	     -0.11975472	     -3.08186588	     -1.53810713	      0.00000000	      0.00000000	      7.76389464	      1.37511592	      4.43852779	     64.02721643	    -21.09795325	      9.24147781	    128.59329156	     85.44615485	     43.82299910	      9.52323009	     57.58064234	    -38.48377392	      1.60906626	    141.80709982	     87.40876351	     32.46725462	     17.74480557
      1.25000000	     -3.74998811	     -3.25183539	     89.85106431	      0.16744374	      0.53895540	      1.08579434	      0.14138427	     -5.03316891	    -15.94150764	      8.81135759	      0.15378720	     30.44773904	     17.28897591	      0.00000000	      3.08881397	      4.76077516	     -1.79780627	     10.16353990	      0.17738723	     28.46182341	      0.88717041	      0.00000000	     -0.05184210	     -0.30395069	     -0.15470728	     -0.09627597	     -0.40425442	     -0.16437649	     -0.08517139	     -0.73902572	     -0.16437649	     -0.05925034	     -0.73902572	     -0.13536887	     -0.04814058	     -0.61981626	     -0.12569967	     -0.02962258	     -0.47081963	     -0.11603046	     -0.37030295	     -3.43835105	     -0.86043549	      0.00000000	      0.00000000	      7.32384723	      1.57406674	      2.93959380	     64.13064142	    -20.79676250	      9.04703044	    130.09179804	     86.56893858	     33.56337121	     10.71287042	     60.28056559	    -35.80398076	      2.15600286	    138.74110127	     87.81543604	     32.12751733	     16.13692299
      1.26666667	     -3.81766944	     -2.98340238	     89.90440286	      0.16754617	      0.53957133	      1.08654281	     -0.18642762	     -5.05860053	    -15.93465053	      8.67883185	      0.15147419	     30.33864543	     17.23248925	      0.00000000	      2.99544831	      4.76320208	     -2.57872634	     10.50283138	      0.18330899	     28.56628824	      1.52941989	      0.00000000	     -0.08569285	     -0.33752498	     -0.12422884	     -0.15914019	     -0.44890822	     -0.13199314	     -0.14078478	     -0.82065823	     -0.13199314	     -0.09793836	     -0.82065823	     -0.10870024	     -0.07957438	     -0.68828093	     -0.10093593	     -0.04896489	     -0.52282619	     -0.09317163	     -0.61209546	     -3.81815004	     -0.69092355	      0.00000000	      0.00000000	      6.78638294	      2.17717641	      1.84494769	     64.03779315	    -20.24218712	      9.36678052	    131.48805835	     87.66019792	     22.75680069	     11.77097381	     62.20523255	    -33.19230571	      2.76986811	    135.51883976	     87.93187050	     29.80551662	     14.96045135
      1.28333333	     -3.93692694	     -2.81439559	     90.10440519	      0.16743910	      0.53979477	      1.08697716	     -0.41120633	     -5.15952679	    -16.10723103	      8.65275688	      0.15101910	     30.36178547	     17.20657744	      0.00000000	      2.96851757	      4.86982501	     -2.75023724	     10.80907253	      0.18865390	     28.62990173	      1.48392912	      0.00000000	     -0.09405941	     -0.38755080	     -0.16658924	     -0.17467772	     -0.51544256	     -0.17700107	     -0.15453020	     -0.94229101	     -0.17700107	     -0.10750050	     -0.94229101	     -0.14576559	     -0.08734356	     -0.79029359	     -0.13535376	     -0.05374554	     -0.60031619	     -0.12494193	     -0.67185693	     -4.38405215	     -0.92651939	      0.00000000	      0.00000000	      6.22535522	      3.11126980	      0.71008483	     63.64513051	    -19.36398760	      9.29440507	    132.70352199	     88.07973797	     14.36290992	     13.34944245	     63.66661284	    -30.54032531	      3.47474277	    132.47506602	     87.74091024	     26.82649689	     14.87618168
      1.30000000	     -3.90634410	     -2.77512293	     89.90972970	      0.16712092	      0.53952251	      1.08695503	     -0.37019295	     -5.18487295	    -15.97314382	      8.81635585	      0.15387444	     30.49140375	     17.25975752	      0.00000000	      2.97729341	      4.89680201	     -2.86834048	     10.95276732	      0.19116185	     28.76768427	      0.85155914	      0.00000000	     -0.08063535	     -0.39360255	     -0.21056319	     -0.14974791	     -0.52349139	     -0.22372339	     -0.13247581	     -0.95700523	     -0.22372339	     -0.09215814	     -0.95700523	     -0.18424279	     -0.07487798	     -0.80263431	     -0.17108259	     -0.04607504	     -0.60969034	     -0.15792239	     -0.57597023	     -4.45251072	     -1.17108931	      0.00000000	      0.00000000	      5.84613067	      3.14037926	      0.28697059	     63.37443487	    -18.69088012	     10.65244050	    133.09093278	     88.30097221	      4.40949470	     12.19255790	     63.90570811	    -28.19934467	      3.46944742	    130.39479088	     87.40245122	     22.01360342	     15.40942502
      1.31666667	     -3.87153082	     -2.86817497	     89.80926260	      0.16678714	      0.53886127	      1.08646132	     -0.18723301	     -5.20145993	    -15.97378017	      9.05769807	      0.15808665	     30.71830576	     17.26209230	      0.00000000	      3.12819563	      4.91983309	     -2.71866543	     11.16180768	      0.19481029	     29.00022892	      0.24709025	      0.00000000	     -0.05297416	     -0.40386686	     -0.21246742	     -0.09837831	     -0.53714293	     -0.22574663	     -0.08703125	     -0.98196189	     -0.22574663	     -0.06054417	     -0.98196189	     -0.18590899	     -0.04919181	     -0.82356530	     -0.17262977	     -0.03026944	     -0.62558977	     -0.15935056	     -0.37838913	     -4.56862271	     -1.18168002	      0.00000000	      0.00000000	      5.82707104	      3.33239063	     -0.55412288	     62.72874211	    -17.93141331	     10.70187713	    133.54147812	     88.24991414	     -1.05961162	     12.82892539	     63.87028153	    -25.55297066	      3.47883173	    129.15176609	     86.96177381	     17.60752755	     17.68157246
      1.33333333	     -3.79761371	     -3.10019512	     89.74813066	      0.16617730	      0.53795988	      1.08570064	      0.21985445	     -5.22102042	    -16.00450697	      9.48549856	      0.16555318	     30.98359788	     17.23355310	      0.00000000	      3.34519198	      4.96455741	     -2.10580246	     11.21694388	      0.19577260	     29.14382870	     -0.77631191	      0.00000000	     -0.01004901	     -0.39380374	     -0.20569013	     -0.01866202	     -0.52375898	     -0.21854577	     -0.01650952	     -0.95749442	     -0.21854577	     -0.01148502	     -0.95749442	     -0.17997887	     -0.00933151	     -0.80304459	     -0.16712323	     -0.00574201	     -0.61000200	     -0.15426760	     -0.07177909	     -4.45478670	     -1.14398681	      0.00000000	      0.00000000	      5.86182353	      3.40236092	     -0.48221714	     61.89965656	    -17.44940114	     11.59777115	    133.46248345	     88.15783353	     -7.68419881	     11.49534357	     62.83319615	    -23.31593983	      3.72934021	    128.82292118	     86.70821418	      9.95233806	     18.18884079
      1.35000000	     -3.74940517	     -3.21789501	     89.78870743	      0.16556968	      0.53717157	      1.08507313	      0.59076595	     -5.27569863	    -16.12625263	     10.08595414	      0.17603311	     31.33976019	     17.06772064	      0.00000000	      3.47842554	      4.97348915	     -1.97925542	     11.33929684	      0.19790806	     29.42195061	     -0.87151702	      0.00000000	      0.00810561	     -0.38236376	     -0.12811736	      0.01505294	     -0.50854380	     -0.13612469	      0.01331671	     -0.92967924	     -0.13612469	      0.00926391	     -0.92967924	     -0.11210269	      0.00752687	     -0.77971617	     -0.10409535	      0.00463155	     -0.59228146	     -0.09608802	      0.05789759	     -4.32537528	     -0.71255031	      0.00000000	      0.00000000	      6.08113904	      3.34388422	     -0.51966549	     60.68538924	    -16.74079811	     10.88796948	    133.19717540	     88.01501212	     -8.55778690	     11.57272484	     61.37026153	    -20.29323012	      2.59436981	    128.72687568	     86.80740144	      8.55006963	     18.42477214
      1.36666667	     -3.49899749	     -3.43919879	     89.25558128	      0.16490963	      0.53616051	      1.08464071	      1.32411694	     -5.19069376	    -15.68391194	     10.94395593	      0.19100806	     31.67676052	     16.84955344	      0.00000000	      3.67506199	      4.88138982	     -1.43141713	     11.32433713	      0.19764697	     29.53088532	     -2.24360679	      0.00000000	      0.04223573	     -0.34161998	      0.17047643	      0.07843597	     -0.45435458	      0.18113120	      0.06938908	     -0.83061482	      0.18113120	      0.04827122	     -0.83061482	      0.14916687	      0.03922010	     -0.69663147	      0.13851210	      0.02413350	     -0.52916935	      0.12785732	      0.30168559	     -3.86447356	      0.94813874	      0.00000000	      0.00000000	      6.24287288	      2.82988024	     -1.66926080	     59.52991536	    -17.38302184	     12.03382212	    133.35908559	     87.90346308	    -16.32939513	     11.27116284	     59.18870697	    -17.66274246	      4.75334295	    129.28109974	     87.24853395	     -3.98253584	     16.27092332
